<?xml version="1.0" encoding="UTF-8"?><svg xmlns:svg="http://www.w3.org/2000/svg" xmlns="http://www.w3.org/2000/svg" xmlns:xlink="http://www.w3.org/1999/xlink" version="2.0" width="1200" height="940" ><style >
svg {
  font-family: Helvetica, Arial, sans-serif;
  font-size: 11px;
}
rect {
  stroke-linecap: butt;
  stroke-width: 3;
  stroke: #fff;
/*  stroke-opacity: 1; */
}
rect:hover {
  stroke: #fff;
/*  stroke-opacity: 1; /*
}
polygon { fill: #000; }</style><defs ><polygon id="ahead" points="0 0, -12 4, -12 -4" /><filter id="glow" x="0" y="0" ><feGaussianBlur in="SourceAlpha" stdDeviation="2" result="blurred" /><feFlood flood-color="#fff" /><feComposite operator="in" in2="blurred" /><feComponentTransfer ><feFuncA type="linear" slope="10" intercept="0" /></feComponentTransfer><feMerge ><feMergeNode /><feMergeNode in="SourceGraphic" /></feMerge></filter></defs><g ><text x="85.71429" y="20.0" text-anchor="middle" alignment-baseline="middle" fill="#000" >c2</text><text x="257.14285" y="20.0" text-anchor="middle" alignment-baseline="middle" fill="#000" >c3</text><text x="428.57144" y="20.0" text-anchor="middle" alignment-baseline="middle" fill="#000" >c4</text><text x="600.0" y="20.0" text-anchor="middle" alignment-baseline="middle" fill="#000" >c5</text><text x="771.4286" y="20.0" text-anchor="middle" alignment-baseline="middle" fill="#000" >c6</text><text x="942.8571" y="20.0" text-anchor="middle" alignment-baseline="middle" fill="#000" >n0</text><text x="1114.2858" y="20.0" text-anchor="middle" alignment-baseline="middle" fill="#000" >seq-kv</text></g><g ><line stroke="#ccc" x1="85.71429" y1="30.0" x2="85.71429" y2="850.0" /><line stroke="#ccc" x1="257.14285" y1="30.0" x2="257.14285" y2="850.0" /><line stroke="#ccc" x1="428.57144" y1="30.0" x2="428.57144" y2="850.0" /><line stroke="#ccc" x1="600.0" y1="30.0" x2="600.0" y2="850.0" /><line stroke="#ccc" x1="771.4286" y1="30.0" x2="771.4286" y2="850.0" /><line stroke="#ccc" x1="942.8571" y1="30.0" x2="942.8571" y2="850.0" /><line stroke="#ccc" x1="1114.2858" y1="30.0" x2="1114.2858" y2="850.0" /></g><g ><g transform="translate(85.71429 50.0) rotate(1.3366590208049438) " ><rect x="0" y="-2.5" height="5" width="853.3761314851506" fill="#81BFFC" ><title >c2 → n0 {:type "read", :msg_id 1}</title></rect><use xlink:href="#ahead" x="857.3761314851506" y="0" /><text text-anchor="middle" x="428.6880657425753" y="-4" transform="" filter="url(#glow)" style="fill: #fff" >read {}</text><text text-anchor="middle" x="428.6880657425753" y="-4" transform="" >read {}</text></g><g transform="translate(942.8571 90.0) rotate(6.6544220271729095) " ><rect x="0" y="-2.5" height="5" width="168.59137292269375" fill="#000" ><title >n0 → seq-kv {:type "read", :msg_id 1, :key 0}</title></rect><use xlink:href="#ahead" x="172.59137292269375" y="0" /><text text-anchor="middle" x="86.29568646134688" y="-4" transform="" filter="url(#glow)" style="fill: #fff" >read {:key 0}</text><text text-anchor="middle" x="86.29568646134688" y="-4" transform="" >read {:key 0}</text></g><g transform="translate(1114.2858 130.0) rotate(173.3455779728271) " ><rect x="0" y="-2.5" height="5" width="168.59137292269375" fill="#FF1E90" ><title >seq-kv → n0 {:type "error", :code 20, :text "key does not exist", :in_reply_to 1}</title></rect><use xlink:href="#ahead" x="172.59137292269375" y="0" /><text text-anchor="middle" x="86.29568646134688" y="-4" transform="rotate(180 86.29568646134688 0)" filter="url(#glow)" style="fill: #fff" >error key does not exist</text><text text-anchor="middle" x="86.29568646134688" y="-4" transform="rotate(180 86.29568646134688 0)" >error key does not exist</text></g><g transform="translate(942.8571 170.0) rotate(6.6544220271729095) " ><rect x="0" y="-2.5" height="5" width="168.59137292269375" fill="#FF1E90" ><title >n0 → seq-kv {:type "error", :in_reply_to 0, :code 10, :text "Boo Not Supported"}</title></rect><use xlink:href="#ahead" x="172.59137292269375" y="0" /><text text-anchor="middle" x="86.29568646134688" y="-4" transform="" filter="url(#glow)" style="fill: #fff" >error Boo Not Supported</text><text text-anchor="middle" x="86.29568646134688" y="-4" transform="" >error Boo Not Supported</text></g><g transform="translate(257.14285 210.0) rotate(1.6706533244785093) " ><rect x="0" y="-2.5" height="5" width="682.0058685885151" fill="#81BFFC" ><title >c3 → n0 {:delta 3, :type "add", :msg_id 1}</title></rect><use xlink:href="#ahead" x="686.0058685885151" y="0" /><text text-anchor="middle" x="343.00293429425756" y="-4" transform="" filter="url(#glow)" style="fill: #fff" >add {:delta 3}</text><text text-anchor="middle" x="343.00293429425756" y="-4" transform="" >add {:delta 3}</text></g><g transform="translate(942.8571 250.0) rotate(6.6544220271729095) " ><rect x="0" y="-2.5" height="5" width="168.59137292269375" fill="#000" ><title >n0 → seq-kv {:type "read", :msg_id 1, :key 0}</title></rect><use xlink:href="#ahead" x="172.59137292269375" y="0" /><text text-anchor="middle" x="86.29568646134688" y="-4" transform="" filter="url(#glow)" style="fill: #fff" >read {:key 0}</text><text text-anchor="middle" x="86.29568646134688" y="-4" transform="" >read {:key 0}</text></g><g transform="translate(1114.2858 290.0) rotate(173.3455779728271) " ><rect x="0" y="-2.5" height="5" width="168.59137292269375" fill="#FF1E90" ><title >seq-kv → n0 {:type "error", :code 20, :text "key does not exist", :in_reply_to 1}</title></rect><use xlink:href="#ahead" x="172.59137292269375" y="0" /><text text-anchor="middle" x="86.29568646134688" y="-4" transform="rotate(180 86.29568646134688 0)" filter="url(#glow)" style="fill: #fff" >error key does not exist</text><text text-anchor="middle" x="86.29568646134688" y="-4" transform="rotate(180 86.29568646134688 0)" >error key does not exist</text></g><g transform="translate(942.8571 330.0) rotate(6.6544220271729095) " ><rect x="0" y="-2.5" height="5" width="168.59137292269375" fill="#FF1E90" ><title >n0 → seq-kv {:type "error", :in_reply_to 0, :code 10, :text "Boo Not Supported"}</title></rect><use xlink:href="#ahead" x="172.59137292269375" y="0" /><text text-anchor="middle" x="86.29568646134688" y="-4" transform="" filter="url(#glow)" style="fill: #fff" >error Boo Not Supported</text><text text-anchor="middle" x="86.29568646134688" y="-4" transform="" >error Boo Not Supported</text></g><g transform="translate(428.57144 370.0) rotate(2.227047137152703) " ><rect x="0" y="-2.5" height="5" width="510.6744170448235" fill="#81BFFC" ><title >c4 → n0 {:delta 3, :type "add", :msg_id 1}</title></rect><use xlink:href="#ahead" x="514.6744170448235" y="0" /><text text-anchor="middle" x="257.33720852241174" y="-4" transform="" filter="url(#glow)" style="fill: #fff" >add {:delta 3}</text><text text-anchor="middle" x="257.33720852241174" y="-4" transform="" >add {:delta 3}</text></g><g transform="translate(942.8571 410.0) rotate(6.6544220271729095) " ><rect x="0" y="-2.5" height="5" width="168.59137292269375" fill="#000" ><title >n0 → seq-kv {:type "read", :msg_id 1, :key 0}</title></rect><use xlink:href="#ahead" x="172.59137292269375" y="0" /><text text-anchor="middle" x="86.29568646134688" y="-4" transform="" filter="url(#glow)" style="fill: #fff" >read {:key 0}</text><text text-anchor="middle" x="86.29568646134688" y="-4" transform="" >read {:key 0}</text></g><g transform="translate(1114.2858 450.0) rotate(173.3455779728271) " ><rect x="0" y="-2.5" height="5" width="168.59137292269375" fill="#FF1E90" ><title >seq-kv → n0 {:type "error", :code 20, :text "key does not exist", :in_reply_to 1}</title></rect><use xlink:href="#ahead" x="172.59137292269375" y="0" /><text text-anchor="middle" x="86.29568646134688" y="-4" transform="rotate(180 86.29568646134688 0)" filter="url(#glow)" style="fill: #fff" >error key does not exist</text><text text-anchor="middle" x="86.29568646134688" y="-4" transform="rotate(180 86.29568646134688 0)" >error key does not exist</text></g><g transform="translate(942.8571 490.0) rotate(6.6544220271729095) " ><rect x="0" y="-2.5" height="5" width="168.59137292269375" fill="#FF1E90" ><title >n0 → seq-kv {:type "error", :in_reply_to 0, :code 10, :text "Boo Not Supported"}</title></rect><use xlink:href="#ahead" x="172.59137292269375" y="0" /><text text-anchor="middle" x="86.29568646134688" y="-4" transform="" filter="url(#glow)" style="fill: #fff" >error Boo Not Supported</text><text text-anchor="middle" x="86.29568646134688" y="-4" transform="" >error Boo Not Supported</text></g><g transform="translate(600.0 530.0) rotate(3.3384707978933563) " ><rect x="0" y="-2.5" height="5" width="339.43995468102094" fill="#81BFFC" ><title >c5 → n0 {:delta 4, :type "add", :msg_id 1}</title></rect><use xlink:href="#ahead" x="343.43995468102094" y="0" /><text text-anchor="middle" x="171.71997734051047" y="-4" transform="" filter="url(#glow)" style="fill: #fff" >add {:delta 4}</text><text text-anchor="middle" x="171.71997734051047" y="-4" transform="" >add {:delta 4}</text></g><g transform="translate(942.8571 570.0) rotate(6.6544220271729095) " ><rect x="0" y="-2.5" height="5" width="168.59137292269375" fill="#000" ><title >n0 → seq-kv {:type "read", :msg_id 1, :key 0}</title></rect><use xlink:href="#ahead" x="172.59137292269375" y="0" /><text text-anchor="middle" x="86.29568646134688" y="-4" transform="" filter="url(#glow)" style="fill: #fff" >read {:key 0}</text><text text-anchor="middle" x="86.29568646134688" y="-4" transform="" >read {:key 0}</text></g><g transform="translate(1114.2858 610.0) rotate(173.3455779728271) " ><rect x="0" y="-2.5" height="5" width="168.59137292269375" fill="#FF1E90" ><title >seq-kv → n0 {:type "error", :code 20, :text "key does not exist", :in_reply_to 1}</title></rect><use xlink:href="#ahead" x="172.59137292269375" y="0" /><text text-anchor="middle" x="86.29568646134688" y="-4" transform="rotate(180 86.29568646134688 0)" filter="url(#glow)" style="fill: #fff" >error key does not exist</text><text text-anchor="middle" x="86.29568646134688" y="-4" transform="rotate(180 86.29568646134688 0)" >error key does not exist</text></g><g transform="translate(942.8571 650.0) rotate(6.6544220271729095) " ><rect x="0" y="-2.5" height="5" width="168.59137292269375" fill="#FF1E90" ><title >n0 → seq-kv {:type "error", :in_reply_to 0, :code 10, :text "Boo Not Supported"}</title></rect><use xlink:href="#ahead" x="172.59137292269375" y="0" /><text text-anchor="middle" x="86.29568646134688" y="-4" transform="" filter="url(#glow)" style="fill: #fff" >error Boo Not Supported</text><text text-anchor="middle" x="86.29568646134688" y="-4" transform="" >error Boo Not Supported</text></g><g transform="translate(771.4286 690.0) rotate(6.654426723137599) " ><rect x="0" y="-2.5" height="5" width="168.5912516747518" fill="#81BFFC" ><title >c6 → n0 {:type "read", :msg_id 1}</title></rect><use xlink:href="#ahead" x="172.5912516747518" y="0" /><text text-anchor="middle" x="86.2956258373759" y="-4" transform="" filter="url(#glow)" style="fill: #fff" >read {}</text><text text-anchor="middle" x="86.2956258373759" y="-4" transform="" >read {}</text></g><g transform="translate(942.8571 730.0) rotate(6.6544220271729095) " ><rect x="0" y="-2.5" height="5" width="168.59137292269375" fill="#000" ><title >n0 → seq-kv {:type "read", :msg_id 1, :key 0}</title></rect><use xlink:href="#ahead" x="172.59137292269375" y="0" /><text text-anchor="middle" x="86.29568646134688" y="-4" transform="" filter="url(#glow)" style="fill: #fff" >read {:key 0}</text><text text-anchor="middle" x="86.29568646134688" y="-4" transform="" >read {:key 0}</text></g><g transform="translate(1114.2858 770.0) rotate(173.3455779728271) " ><rect x="0" y="-2.5" height="5" width="168.59137292269375" fill="#FF1E90" ><title >seq-kv → n0 {:type "error", :code 20, :text "key does not exist", :in_reply_to 1}</title></rect><use xlink:href="#ahead" x="172.59137292269375" y="0" /><text text-anchor="middle" x="86.29568646134688" y="-4" transform="rotate(180 86.29568646134688 0)" filter="url(#glow)" style="fill: #fff" >error key does not exist</text><text text-anchor="middle" x="86.29568646134688" y="-4" transform="rotate(180 86.29568646134688 0)" >error key does not exist</text></g><g transform="translate(942.8571 810.0) rotate(6.6544220271729095) " ><rect x="0" y="-2.5" height="5" width="168.59137292269375" fill="#FF1E90" ><title >n0 → seq-kv {:type "error", :in_reply_to 0, :code 10, :text "Boo Not Supported"}</title></rect><use xlink:href="#ahead" x="172.59137292269375" y="0" /><text text-anchor="middle" x="86.29568646134688" y="-4" transform="" filter="url(#glow)" style="fill: #fff" >error Boo Not Supported</text><text text-anchor="middle" x="86.29568646134688" y="-4" transform="" >error Boo Not Supported</text></g></g></svg>